<?xml version="1.0" encoding="utf-8" standalone="no"?>
<!DOCTYPE svg PUBLIC "-//W3C//DTD SVG 1.1//EN"
  "http://www.w3.org/Graphics/SVG/1.1/DTD/svg11.dtd">
<svg xmlns:xlink="http://www.w3.org/1999/xlink" width="279.923356pt" height="254.077908pt" viewBox="0 0 279.923356 254.077908" xmlns="http://www.w3.org/2000/svg" version="1.1">
 <metadata>
  <rdf:RDF xmlns:dc="http://purl.org/dc/elements/1.1/" xmlns:cc="http://creativecommons.org/ns#" xmlns:rdf="http://www.w3.org/1999/02/22-rdf-syntax-ns#">
   <cc:Work>
    <dc:type rdf:resource="http://purl.org/dc/dcmitype/StillImage"/>
    <dc:date>2026-06-27T18:49:10.862145</dc:date>
    <dc:format>image/svg+xml</dc:format>
    <dc:creator>
     <cc:Agent>
      <dc:title>Matplotlib v3.10.5, https://matplotlib.org/</dc:title>
     </cc:Agent>
    </dc:creator>
   </cc:Work>
  </rdf:RDF>
 </metadata>
 <defs>
  <style type="text/css">*{stroke-linejoin: round; stroke-linecap: butt}</style>
 </defs>
 <g id="figure_1">
  <g id="patch_1">
   <path d="M 0 254.077908
L 279.923356 254.077908
L 279.923356 0
L 0 0
z
" style="fill: #ffffff"/>
  </g>
  <g id="axes_1">
   <g id="line2d_1">
    <path d="M 22.732251 61.762883
L 240.183765 61.762883
" clip-path="url(#pf99d45140e)" style="fill: none; stroke: #d9dee2; stroke-width: 0.8; stroke-linecap: square"/>
   </g>
   <g id="line2d_2">
    <path d="M 22.732251 102.776392
L 240.183765 102.776392
" clip-path="url(#pf99d45140e)" style="fill: none; stroke: #edf0f2; stroke-width: 0.6; stroke-linecap: square"/>
   </g>
   <g id="line2d_3">
    <path d="M 22.732251 139.725498
L 240.183765 139.725498
" clip-path="url(#pf99d45140e)" style="fill: none; stroke: #edf0f2; stroke-width: 0.6; stroke-linecap: square"/>
   </g>
   <g id="line2d_4">
    <path d="M 22.732251 176.674605
L 240.183765 176.674605
" clip-path="url(#pf99d45140e)" style="fill: none; stroke: #edf0f2; stroke-width: 0.6; stroke-linecap: square"/>
   </g>
   <g id="line2d_5">
    <path d="M 22.732251 213.623712
L 240.183765 213.623712
" clip-path="url(#pf99d45140e)" style="fill: none; stroke: #edf0f2; stroke-width: 0.6; stroke-linecap: square"/>
   </g>
   <g id="text_1">
    <text style="font-weight: 700; font-size: 14px; font-family: 'DejaVu Sans'; text-anchor: start" x="7.2" y="17.837813" transform="rotate(-0 7.2 17.837813)">E</text>
   </g>
   <g id="text_2">
    <text style="font-weight: 700; font-size: 10.4px; font-family: 'DejaVu Sans'; text-anchor: start" x="31.792731" y="17.396777" transform="rotate(-0 31.792731 17.396777)">Same-state recovery in global consensus</text>
   </g>
   <g id="text_3">
    <text style="font-weight: 700; font-size: 8.3px; font-family: 'DejaVu Sans'; text-anchor: start; fill: #666666" x="22.732251" y="54.076906" transform="rotate(-0 22.732251 54.076906)">Branch</text>
   </g>
   <g id="text_4">
    <text style="font-weight: 700; font-size: 8.3px; font-family: 'DejaVu Sans'; text-anchor: end; fill: #666666" x="235.006348" y="54.076906" transform="rotate(-0 235.006348 54.076906)">Recovered</text>
   </g>
   <g id="text_5">
    <text style="font-size: 8.2px; font-family: 'DejaVu Sans'; text-anchor: start; fill: #777777" x="22.732251" y="75.110303" transform="rotate(-0 22.732251 75.110303)">Australia</text>
   </g>
   <g id="PathCollection_1">
    <defs>
     <path id="m4b223e027c" d="M 0 2.915476
C 0.773193 2.915476 1.514823 2.608283 2.061553 2.061553
C 2.608283 1.514823 2.915476 0.773193 2.915476 0
C 2.915476 -0.773193 2.608283 -1.514823 2.061553 -2.061553
C 1.514823 -2.608283 0.773193 -2.915476 0 -2.915476
C -0.773193 -2.915476 -1.514823 -2.608283 -2.061553 -2.061553
C -2.608283 -1.514823 -2.915476 -0.773193 -2.915476 0
C -2.915476 0.773193 -2.608283 1.514823 -2.061553 2.061553
C -1.514823 2.608283 -0.773193 2.915476 0 2.915476
z
" style="stroke: #ffffff; stroke-width: 0.4"/>
    </defs>
    <g clip-path="url(#pf99d45140e)">
     <use xlink:href="#m4b223e027c" x="26.615314" y="87.257767" style="fill: #6a51a3; stroke: #ffffff; stroke-width: 0.4"/>
    </g>
   </g>
   <g id="text_6">
    <text style="font-size: 8.8px; font-family: 'DejaVu Sans'; text-anchor: start; fill: #333333" x="36.970148" y="89.686017" transform="rotate(-0 36.970148 89.686017)">C4</text>
   </g>
   <g id="text_7">
    <text style="font-weight: 700; font-size: 9.4px; font-family: 'DejaVu Sans'; text-anchor: end; fill: #6a51a3" x="235.006348" y="89.85158" transform="rotate(-0 235.006348 89.85158)">23/23</text>
   </g>
   <g id="PathCollection_2">
    <defs>
     <path id="ma4e6e4ffb6" d="M 0 2.915476
C 0.773193 2.915476 1.514823 2.608283 2.061553 2.061553
C 2.608283 1.514823 2.915476 0.773193 2.915476 0
C 2.915476 -0.773193 2.608283 -1.514823 2.061553 -2.061553
C 1.514823 -2.608283 0.773193 -2.915476 0 -2.915476
C -0.773193 -2.915476 -1.514823 -2.608283 -2.061553 -2.061553
C -2.608283 -1.514823 -2.915476 -0.773193 -2.915476 0
C -2.915476 0.773193 -2.608283 1.514823 -2.061553 2.061553
C -1.514823 2.608283 -0.773193 2.915476 0 2.915476
z
" style="stroke: #ffffff; stroke-width: 0.4"/>
    </defs>
    <g clip-path="url(#pf99d45140e)">
     <use xlink:href="#ma4e6e4ffb6" x="26.615314" y="124.206874" style="fill: #1b9e77; stroke: #ffffff; stroke-width: 0.4"/>
    </g>
   </g>
   <g id="text_8">
    <text style="font-size: 8.8px; font-family: 'DejaVu Sans'; text-anchor: start; fill: #333333" x="36.970148" y="126.635124" transform="rotate(-0 36.970148 126.635124)">C6</text>
   </g>
   <g id="text_9">
    <text style="font-weight: 700; font-size: 9.4px; font-family: 'DejaVu Sans'; text-anchor: end; fill: #777777" x="235.006348" y="126.800686" transform="rotate(-0 235.006348 126.800686)">0/23</text>
   </g>
   <g id="text_10">
    <text style="font-size: 8.2px; font-family: 'DejaVu Sans'; text-anchor: start; fill: #777777" x="22.732251" y="149.008516" transform="rotate(-0 22.732251 149.008516)">United States</text>
   </g>
   <g id="PathCollection_3">
    <defs>
     <path id="m2e1e079e99" d="M 0 2.915476
C 0.773193 2.915476 1.514823 2.608283 2.061553 2.061553
C 2.608283 1.514823 2.915476 0.773193 2.915476 0
C 2.915476 -0.773193 2.608283 -1.514823 2.061553 -2.061553
C 1.514823 -2.608283 0.773193 -2.915476 0 -2.915476
C -0.773193 -2.915476 -1.514823 -2.608283 -2.061553 -2.061553
C -2.608283 -1.514823 -2.915476 -0.773193 -2.915476 0
C -2.915476 0.773193 -2.608283 1.514823 -2.061553 2.061553
C -1.514823 2.608283 -0.773193 2.915476 0 2.915476
z
" style="stroke: #ffffff; stroke-width: 0.4"/>
    </defs>
    <g clip-path="url(#pf99d45140e)">
     <use xlink:href="#m2e1e079e99" x="26.615314" y="161.15598" style="fill: #d55e00; stroke: #ffffff; stroke-width: 0.4"/>
    </g>
   </g>
   <g id="text_11">
    <text style="font-size: 8.8px; font-family: 'DejaVu Sans'; text-anchor: start; fill: #333333" x="36.970148" y="163.58423" transform="rotate(-0 36.970148 163.58423)">C18</text>
   </g>
   <g id="text_12">
    <text style="font-weight: 700; font-size: 9.4px; font-family: 'DejaVu Sans'; text-anchor: end; fill: #777777" x="235.006348" y="163.749793" transform="rotate(-0 235.006348 163.749793)">0/26</text>
   </g>
   <g id="PathCollection_4">
    <defs>
     <path id="ma1ad96e13f" d="M 0 2.915476
C 0.773193 2.915476 1.514823 2.608283 2.061553 2.061553
C 2.608283 1.514823 2.915476 0.773193 2.915476 0
C 2.915476 -0.773193 2.608283 -1.514823 2.061553 -2.061553
C 1.514823 -2.608283 0.773193 -2.915476 0 -2.915476
C -0.773193 -2.915476 -1.514823 -2.608283 -2.061553 -2.061553
C -2.608283 -1.514823 -2.915476 -0.773193 -2.915476 0
C -2.915476 0.773193 -2.608283 1.514823 -2.061553 2.061553
C -1.514823 2.608283 -0.773193 2.915476 0 2.915476
z
" style="stroke: #ffffff; stroke-width: 0.4"/>
    </defs>
    <g clip-path="url(#pf99d45140e)">
     <use xlink:href="#ma1ad96e13f" x="26.615314" y="198.105087" style="fill: #0072b2; stroke: #ffffff; stroke-width: 0.4"/>
    </g>
   </g>
   <g id="text_13">
    <text style="font-size: 8.8px; font-family: 'DejaVu Sans'; text-anchor: start; fill: #333333" x="36.970148" y="200.533337" transform="rotate(-0 36.970148 200.533337)">C21</text>
   </g>
   <g id="text_14">
    <text style="font-weight: 700; font-size: 9.4px; font-family: 'DejaVu Sans'; text-anchor: end; fill: #0072b2" x="235.006348" y="200.698899" transform="rotate(-0 235.006348 200.698899)">26/26</text>
   </g>
   <g id="text_15">
    <text style="font-size: 7.2px; font-family: 'DejaVu Sans'; text-anchor: start; fill: #69757c" x="22.732251" y="232.23756" transform="rotate(-0 22.732251 232.23756)">Same-state criterion: &lt;=5 nt across the 966-nt G gene</text>
   </g>
  </g>
 </g>
 <defs>
  <clipPath id="pf99d45140e">
   <rect x="7.2" y="25.183268" width="258.87085" height="221.69464"/>
  </clipPath>
 </defs>
</svg>
